<?xml version="1.0" encoding="UTF-8"?>
<!DOCTYPE svg PUBLIC "-//W3C//DTD SVG 1.1//EN" "http://www.w3.org/Graphics/SVG/1.1/DTD/svg11.dtd">
<svg xmlns="http://www.w3.org/2000/svg" version="1.1" width="180px" height="180px" style="shape-rendering:geometricPrecision; text-rendering:geometricPrecision; image-rendering:optimizeQuality; fill-rule:evenodd; clip-rule:evenodd" xmlns:xlink="http://www.w3.org/1999/xlink">
<g><path style="opacity:0.946" fill="#f7f0db" d="M 152.5,25.5 C 152.708,52.5427 152.041,79.5427 150.5,106.5C 149.5,106.5 148.5,106.5 147.5,106.5C 147.649,107.552 147.483,108.552 147,109.5C 145.628,108.09 144.795,106.423 144.5,104.5C 144.851,80.167 145.185,55.8336 145.5,31.5C 107.67,30.5015 69.6703,30.1682 31.5,30.5C 31.1709,44.6766 31.5042,58.6766 32.5,72.5C 31.9971,84.6087 32.6637,96.6087 34.5,108.5C 34.3379,110.527 34.5045,112.527 35,114.5C 38.1598,116.47 39.3265,119.136 38.5,122.5C 35.1315,120.719 33.4648,118.219 33.5,115C 31.7834,113.441 29.7834,112.608 27.5,112.5C 26.9536,110.697 26.1203,109.03 25,107.5C 24.5,80.1687 24.3334,52.8354 24.5,25.5C 67.1667,25.5 109.833,25.5 152.5,25.5 Z"/></g>
<g><path style="opacity:0.87" fill="#efe6d6" d="M 152.5,25.5 C 153.664,52.3302 153.83,79.3302 153,106.5C 148.769,116.732 142.269,125.232 133.5,132C 120.856,140.31 107.523,147.31 93.5,153C 90.5,153.667 87.5,153.667 84.5,153C 67.1748,146.326 51.3414,137.16 37,125.5C 33.3351,121.492 30.1684,117.159 27.5,112.5C 29.7834,112.608 31.7834,113.441 33.5,115C 33.4648,118.219 35.1315,120.719 38.5,122.5C 39.3265,119.136 38.1598,116.47 35,114.5C 34.5045,112.527 34.3379,110.527 34.5,108.5C 48.1009,127.076 66.1009,139.41 88.5,145.5C 107.385,140.31 123.552,130.644 137,116.5C 139.787,112.571 142.287,108.571 144.5,104.5C 144.795,106.423 145.628,108.09 147,109.5C 147.483,108.552 147.649,107.552 147.5,106.5C 148.5,106.5 149.5,106.5 150.5,106.5C 152.041,79.5427 152.708,52.5427 152.5,25.5 Z"/></g>
<g><path style="opacity:0.792" fill="#9f6e7d" d="M 145.5,31.5 C 107.833,31.5 70.1667,31.5 32.5,31.5C 32.5,45.1667 32.5,58.8333 32.5,72.5C 31.5042,58.6766 31.1709,44.6766 31.5,30.5C 69.6703,30.1682 107.67,30.5015 145.5,31.5 Z"/></g>
<g><path style="opacity:1" fill="#67113e" d="M 145.5,31.5 C 145.185,55.8336 144.851,80.167 144.5,104.5C 142.287,108.571 139.787,112.571 137,116.5C 123.552,130.644 107.385,140.31 88.5,145.5C 66.1009,139.41 48.1009,127.076 34.5,108.5C 32.6637,96.6087 31.9971,84.6087 32.5,72.5C 32.5,58.8333 32.5,45.1667 32.5,31.5C 70.1667,31.5 107.833,31.5 145.5,31.5 Z"/></g>
<g><path style="opacity:1" fill="#f3ebd9" d="M 86.5,40.5 C 86.5,41.5 86.5,42.5 86.5,43.5C 75.3206,43.8279 64.3206,43.4946 53.5,42.5C 57.9346,41.6283 58.2679,40.2949 54.5,38.5C 54.7093,37.914 55.0426,37.414 55.5,37C 64.1667,36.3333 72.8333,36.3333 81.5,37C 83.5844,37.6972 85.2511,38.8639 86.5,40.5 Z"/></g>
<g><path style="opacity:1" fill="#f5ebda" d="M 120.5,41.5 C 111.225,43.4733 101.558,44.14 91.5,43.5C 91.5,42.5 91.5,41.5 91.5,40.5C 92.343,38.8267 93.6763,37.66 95.5,37C 104.167,36.3333 112.833,36.3333 121.5,37C 121.957,37.414 122.291,37.914 122.5,38.5C 121.388,39.2652 120.721,40.2652 120.5,41.5 Z"/></g>
<g><path style="opacity:1" fill="#cebeb6" d="M 53.5,42.5 C 64.3206,43.4946 75.3206,43.8279 86.5,43.5C 79.0182,44.492 71.3516,44.8254 63.5,44.5C 59.774,44.8226 56.1073,44.4892 52.5,43.5C 52.6236,42.8933 52.9569,42.56 53.5,42.5 Z"/></g>
<g><path style="opacity:1" fill="#cdbab3" d="M 91.5,40.5 C 91.5,41.5 91.5,42.5 91.5,43.5C 101.558,44.14 111.225,43.4733 120.5,41.5C 122.423,41.795 124.09,42.6283 125.5,44C 120.177,44.4994 114.844,44.666 109.5,44.5C 102.978,44.8235 96.6446,44.4902 90.5,43.5C 90.2627,42.209 90.596,41.209 91.5,40.5 Z"/></g>
<g><path style="opacity:1" fill="#936777" d="M 86.5,40.5 C 87.4511,41.9187 87.7845,43.5853 87.5,45.5C 79.3159,45.8257 71.3159,45.4924 63.5,44.5C 71.3516,44.8254 79.0182,44.492 86.5,43.5C 86.5,42.5 86.5,41.5 86.5,40.5 Z"/></g>
<g><path style="opacity:1" fill="#926777" d="M 90.5,43.5 C 96.6446,44.4902 102.978,44.8235 109.5,44.5C 102.989,45.8181 96.3222,45.8181 89.5,44.5C 89.6236,43.8933 89.9569,43.56 90.5,43.5 Z"/></g>
<g><path style="opacity:1" fill="#ddcac3" d="M 127.5,49.5 C 101.513,50.4018 75.5128,50.7351 49.5,50.5C 49.4142,49.5041 49.7476,48.6708 50.5,48C 63.3333,47.8333 76.1667,47.6667 89,47.5C 102.185,47.5008 115.018,48.1675 127.5,49.5 Z"/></g>
<g><path style="opacity:1" fill="#a8858e" d="M 127.5,49.5 C 128.043,49.56 128.376,49.8933 128.5,50.5C 102.003,51.8292 75.6697,51.8292 49.5,50.5C 75.5128,50.7351 101.513,50.4018 127.5,49.5 Z"/></g>
<g><path style="opacity:1" fill="#8d5847" d="M 136.5,55.5 C 137.404,56.209 137.737,57.209 137.5,58.5C 104.833,58.5 72.1667,58.5 39.5,58.5C 39.5,57.1667 39.5,55.8333 39.5,54.5C 72.0043,54.1684 104.338,54.5018 136.5,55.5 Z"/></g>
<g><path style="opacity:1" fill="#c4a052" d="M 136.5,55.5 C 120.848,56.8328 104.848,57.4995 88.5,57.5C 72.5,57.1667 56.5,56.8333 40.5,56.5C 72.4931,55.5001 104.493,55.1668 136.5,55.5 Z"/></g>
<g><path style="opacity:1" fill="#d7c4c1" d="M 80.5,61.5 C 85.9302,61.161 91.2636,61.661 96.5,63C 91.9534,64.5452 87.2867,64.8785 82.5,64C 81.244,63.5831 80.5774,62.7498 80.5,61.5 Z"/></g>
<g><path style="opacity:1" fill="#e0d5c9" d="M 69.5,62.5 C 73.5164,61.8999 77.0164,62.8999 80,65.5C 81.271,69.1661 80.1044,71.6661 76.5,73C 71.2949,74.4063 67.9616,72.5729 66.5,67.5C 67.0924,65.5775 68.0924,63.9108 69.5,62.5 Z"/></g>
<g><path style="opacity:1" fill="#dfd4c9" d="M 99.5,62.5 C 102.579,62.2601 105.579,62.5934 108.5,63.5C 111.688,67.576 111.021,70.7427 106.5,73C 97.8017,73.7726 95.4684,70.2726 99.5,62.5 Z"/></g>
<g><path style="opacity:1" fill="#2c253b" d="M 72.5,65.5 C 75.5,65.1667 76.8333,66.5 76.5,69.5C 74.8333,69.5 73.1667,69.5 71.5,69.5C 71.4326,68.0413 71.7659,66.7079 72.5,65.5 Z"/></g>
<g><path style="opacity:1" fill="#30283c" d="M 101.5,65.5 C 102.833,65.5 104.167,65.5 105.5,65.5C 105.5,66.8333 105.5,68.1667 105.5,69.5C 104.167,69.5 102.833,69.5 101.5,69.5C 101.5,68.1667 101.5,66.8333 101.5,65.5 Z"/></g>
<g><path style="opacity:1" fill="#c5a15b" d="M 53.5,67.5 C 55.1667,67.5 56.8333,67.5 58.5,67.5C 59.0794,73.9255 56.0794,77.2588 49.5,77.5C 49.1856,73.4682 50.5189,70.1348 53.5,67.5 Z"/></g>
<g><path style="opacity:1" fill="#ebdfd1" d="M 93.5,67.5 C 93.5,68.1667 93.5,68.8333 93.5,69.5C 81.5,68.8333 81.5,68.1667 93.5,67.5 Z"/></g>
<g><path style="opacity:1" fill="#c9a560" d="M 118.5,67.5 C 124.982,67.6501 127.982,70.9834 127.5,77.5C 121.36,77.0254 118.36,73.692 118.5,67.5 Z"/></g>
<g><path style="opacity:1" fill="#9f6f80" d="M 93.5,67.5 C 81.5,68.1667 81.5,68.8333 93.5,69.5C 90.3752,70.4794 87.0419,70.8128 83.5,70.5C 83.5,69.1667 83.5,67.8333 83.5,66.5C 87.0419,66.1872 90.3752,66.5206 93.5,67.5 Z"/></g>
<g><path style="opacity:1" fill="#c0a05f" d="M 41.5,73.5 C 45.6797,74.0104 47.6797,76.3437 47.5,80.5C 42.984,80.5193 40.984,78.186 41.5,73.5 Z"/></g>
<g><path style="opacity:1" fill="#c2a064" d="M 132.5,73.5 C 133.833,73.5 135.167,73.5 136.5,73.5C 136.638,77.6935 134.638,80.0268 130.5,80.5C 130.394,77.9214 131.061,75.588 132.5,73.5 Z"/></g>
<g><path style="opacity:1" fill="#e3dacc" d="M 86.5,112.5 C 85.0413,112.567 83.7079,112.234 82.5,111.5C 82.1677,99.4815 82.501,87.4815 83.5,75.5C 84.1667,75.1667 84.8333,74.8333 85.5,74.5C 86.4991,87.1492 86.8324,99.8158 86.5,112.5 Z"/></g>
<g><path style="opacity:1" fill="#decdc3" d="M 94.5,111.5 C 93.1667,111.833 91.8333,112.167 90.5,112.5C 90.1676,99.8158 90.5009,87.1492 91.5,74.5C 92.7481,75.0402 93.9148,75.7069 95,76.5C 95.8261,88.3407 95.6595,100.007 94.5,111.5 Z"/></g>
<g><path style="opacity:1" fill="#bb975b" d="M 39.5,80.5 C 43.964,81.2976 46.2973,83.9642 46.5,88.5C 41.3992,88.3151 39.0659,85.6484 39.5,80.5 Z"/></g>
<g><path style="opacity:1" fill="#be9c64" d="M 50.5,80.5 C 52.1667,80.5 53.8333,80.5 55.5,80.5C 55.4869,83.6951 53.8202,85.3618 50.5,85.5C 49.263,85.4435 48.263,84.9435 47.5,84C 48.7101,82.9609 49.7101,81.7942 50.5,80.5 Z"/></g>
<g><path style="opacity:1" fill="#b99b60" d="M 121.5,80.5 C 125.224,79.7731 127.891,81.1064 129.5,84.5C 125.246,86.2334 122.58,84.9001 121.5,80.5 Z"/></g>
<g><path style="opacity:1" fill="#ba9656" d="M 134.5,80.5 C 135.833,80.5 137.167,80.5 138.5,80.5C 138.5,85.1667 136.167,87.5 131.5,87.5C 131.15,84.5466 132.15,82.2133 134.5,80.5 Z"/></g>
<g><path style="opacity:1" fill="#eaded0" d="M 98.5,82.5 C 99.4959,82.4142 100.329,82.7476 101,83.5C 101.667,89.8333 101.667,96.1667 101,102.5C 100.329,103.252 99.4959,103.586 98.5,103.5C 98.5,96.5 98.5,89.5 98.5,82.5 Z"/></g>
<g><path style="opacity:1" fill="#b99355" d="M 37.5,88.5 C 41.1019,88.4674 44.1019,89.8007 46.5,92.5C 47.8751,89.4529 50.2084,88.1196 53.5,88.5C 52.9293,92.7221 50.4293,94.7221 46,94.5C 43.2682,94.3852 40.7682,93.5519 38.5,92C 37.6634,90.9887 37.33,89.8221 37.5,88.5 Z"/></g>
<g><path style="opacity:1" fill="#c09d5c" d="M 123.5,88.5 C 126.475,88.7134 129.142,89.7134 131.5,91.5C 133.745,89.3773 136.412,88.3773 139.5,88.5C 139.67,89.8221 139.337,90.9887 138.5,92C 133.833,95.3333 129.167,95.3333 124.5,92C 123.663,90.9887 123.33,89.8221 123.5,88.5 Z"/></g>
<g><path style="opacity:1" fill="#977b93" d="M 75.5,77.5 C 76.8333,77.5 78.1667,77.5 79.5,77.5C 79.6664,86.5062 79.4998,95.5062 79,104.5C 78.8142,106.9 78.3142,109.234 77.5,111.5C 76.914,111.291 76.414,110.957 76,110.5C 75.5002,99.505 75.3335,88.505 75.5,77.5 Z"/></g>
<g><path style="opacity:1" fill="#f3eddd" d="M 76.5,82.5 C 77.821,85.5982 78.4877,89.0982 78.5,93C 78.1667,96.5 77.8333,100 77.5,103.5C 76.503,96.5316 76.1697,89.5316 76.5,82.5 Z"/></g>
<g><path style="opacity:1" fill="#7d567f" d="M 98.5,103.5 C 99.4959,103.586 100.329,103.252 101,102.5C 101.667,96.1667 101.667,89.8333 101,83.5C 100.329,82.7476 99.4959,82.4142 98.5,82.5C 98.5,80.5 98.5,78.5 98.5,76.5C 99.8333,76.5 101.167,76.5 102.5,76.5C 102.667,87.505 102.5,98.505 102,109.5C 101.311,110.357 100.478,111.023 99.5,111.5C 98.52,108.914 98.1866,106.247 98.5,103.5 Z"/></g>
<g><path style="opacity:1" fill="#b78e4b" d="M 111.5,127.5 C 107.592,128.798 103.592,128.632 99.5,127C 98.5939,125.301 98.2606,123.467 98.5,121.5C 99.0483,118.916 100.715,117.916 103.5,118.5C 103.215,120.288 103.548,121.955 104.5,123.5C 105.478,123.023 106.311,122.357 107,121.5C 107.333,119.167 107.667,116.833 108,114.5C 109.085,113.707 110.252,113.04 111.5,112.5C 111.766,118.344 113.599,119.344 117,115.5C 116.68,112.54 116.68,109.54 117,106.5C 117.833,105.5 118.667,104.5 119.5,103.5C 121.422,105.003 122.588,107.003 123,109.5C 126.333,106.5 126.333,103.5 123,100.5C 122.505,98.5273 122.338,96.5273 122.5,94.5C 125.624,94.9429 127.957,96.6095 129.5,99.5C 131.92,96.9228 134.92,95.9228 138.5,96.5C 138.528,98.5824 137.861,100.416 136.5,102C 132.888,103.139 129.554,104.806 126.5,107C 129.226,107.182 131.893,107.682 134.5,108.5C 134.291,109.086 133.957,109.586 133.5,110C 129.696,111.05 125.863,111.884 122,112.5C 121.833,112.833 121.667,113.167 121.5,113.5C 124.167,114.167 126.833,114.833 129.5,115.5C 127.869,117.297 125.869,118.464 123.5,119C 120.167,119.333 116.833,119.667 113.5,120C 116.112,120.639 118.446,121.806 120.5,123.5C 116.331,124.742 112.164,124.742 108,123.5C 106.941,123.63 106.108,124.13 105.5,125C 107.641,125.573 109.641,126.406 111.5,127.5 Z"/></g>
<g><path style="opacity:1" fill="#b68d4d" d="M 52.5,94.5 C 53.5,94.5 54.5,94.5 55.5,94.5C 55.6621,96.5273 55.4955,98.5273 55,100.5C 50.6543,103.187 50.4876,106.187 54.5,109.5C 55.2436,108.009 55.9103,106.509 56.5,105C 57.7839,104.316 58.9505,104.483 60,105.5C 60.3333,108.833 60.6667,112.167 61,115.5C 64.2176,119.193 65.3843,118.193 64.5,112.5C 66.9928,112.329 68.8261,113.329 70,115.5C 70.8184,118.227 70.6517,120.894 69.5,123.5C 65.1845,124.775 60.8512,124.775 56.5,123.5C 58.2529,121.3 60.5862,120.133 63.5,120C 59.1834,119.644 54.85,118.977 50.5,118C 49.6433,117.311 48.9767,116.478 48.5,115.5C 51.4465,114.679 54.4465,114.179 57.5,114C 53.7185,112.173 49.7185,111.173 45.5,111C 44.5,110 43.5,109 42.5,108C 52.8678,107.033 52.8678,105.366 42.5,103C 37.0068,97.7372 37.6734,95.7372 44.5,97C 45.5786,97.956 46.7453,98.7894 48,99.5C 49.0591,97.3408 50.5591,95.6741 52.5,94.5 Z"/></g>
<g><path style="opacity:1" fill="#755584" d="M 82.5,111.5 C 83.7079,112.234 85.0413,112.567 86.5,112.5C 86.8076,114.924 86.4742,117.257 85.5,119.5C 83.3368,117.353 82.3368,114.686 82.5,111.5 Z"/></g>
<g><path style="opacity:1" fill="#765480" d="M 94.5,111.5 C 94.6633,113.857 94.4966,116.19 94,118.5C 92.9887,119.337 91.8221,119.67 90.5,119.5C 90.5,117.167 90.5,114.833 90.5,112.5C 91.8333,112.167 93.1667,111.833 94.5,111.5 Z"/></g>
<g><path style="opacity:1" fill="#a2743e" d="M 98.5,121.5 C 98.2606,123.467 98.5939,125.301 99.5,127C 103.592,128.632 107.592,128.798 111.5,127.5C 112.043,127.56 112.376,127.893 112.5,128.5C 111.271,129.281 109.938,129.781 108.5,130C 103.128,129.658 97.7943,129.825 92.5,130.5C 91.479,131.002 91.3123,131.668 92,132.5C 93.9717,133.305 95.4717,134.639 96.5,136.5C 96.1667,136.833 95.8333,137.167 95.5,137.5C 93.1909,136.349 91.0242,135.016 89,133.5C 86.3844,134.615 83.8844,135.949 81.5,137.5C 80.479,136.998 80.3123,136.332 81,135.5C 82.9717,134.695 84.4717,133.361 85.5,131.5C 85.1667,131.167 84.8333,130.833 84.5,130.5C 80.2037,129.408 75.8704,129.408 71.5,130.5C 69.192,130.635 67.192,129.969 65.5,128.5C 67.2529,126.3 69.5862,125.133 72.5,125C 71.3044,124.346 71.3044,123.846 72.5,123.5C 73.451,124.326 74.451,124.492 75.5,124C 74.5939,122.301 74.2606,120.467 74.5,118.5C 79.3611,119.376 81.6945,122.376 81.5,127.5C 84.0398,128.402 86.5398,129.402 89,130.5C 91.4048,129.047 93.9048,127.713 96.5,126.5C 97.1698,124.709 97.8365,123.042 98.5,121.5 Z"/></g>
</svg>
